  0
SECTION
  2
HEADER
  9
$ANGBASE
  50
0.0
  9
$ANGDIR
  70
1
  9
$MEASUREMENT
  70
1
  9
$INSUNITS
  70
4
  0
ENDSEC
  0
SECTION
  2
TABLES
  0
TABLE
  2
LTYPE
  70
4
  0
LTYPE
  5
40F
  2
CONTINUOUS
  70
0
  3
Solid line
  72
65
  73
0
  40
0.0
  0
LTYPE
  5
410
  2
DASHDOT
 70
0
  3
Dash Dot ____ _ ____ _
 72
65
 73
4
 40
2.0
 49
1.25
 49
-0.25
 49
0.25
 49
-0.25
  0
LTYPE
  5
411
  2
DASHED
 70
0
  3
Dashed __ __ __ __ __
 72
65
 73
2
 40
0.75
 49
0.5
 49
-0.25
  0
LTYPE
  5
43B
  2
DOTTED
 70
0
  3
Dotted .  .  .  .
 72
65
 73
2
 40
0.2
 49
0.0
 49
-0.2
  0
ENDTAB
  0
TABLE
  2
STYLE
  70
4
  0
STYLE
  2
KICAD
  70
0
  40
0
  41
1
  42
1
  50
0
  71
0
  3
isocp.shx
  0
STYLE
  2
KICADB
  70
0
  40
0
  41
1
  42
1
  50
0
  71
0
  3
isocp.shx
  0
STYLE
  2
KICADI
  70
0
  40
0
  41
1
  42
1
  50
15
  71
0
  3
isocp.shx
  0
STYLE
  2
KICADBI
  70
0
  40
0
  41
1
  42
1
  50
15
  71
0
  3
isocp.shx
  0
ENDTAB
  0
TABLE
  2
LAYER
  70
1
  0
LAYER
  2
Edge.Cuts
  70
0
  62
254
  420
13685453
  6
CONTINUOUS
  0
ENDTAB
  0
ENDSEC
  0
SECTION
  2
ENTITIES
0
LINE
8
Edge.Cuts
6
CONTINUOUS
10
331.375
20
-28.4749999999999979
11
331.6491049999999632
21
-28.4929659999999991
0
LINE
8
Edge.Cuts
6
CONTINUOUS
10
331.6491049999999632
20
-28.4929659999999991
11
331.9185200000000009
21
-28.5465549999999979
0
LINE
8
Edge.Cuts
6
CONTINUOUS
10
331.9185200000000009
20
-28.5465549999999979
11
332.1786349999999857
21
-28.6348529999999997
0
LINE
8
Edge.Cuts
6
CONTINUOUS
10
332.1786349999999857
20
-28.6348529999999997
11
332.4250000000000114
21
-28.7563459999999971
0
LINE
8
Edge.Cuts
6
CONTINUOUS
10
332.4250000000000114
20
-28.7563459999999971
11
332.653398999999979
21
-28.9089579999999984
0
LINE
8
Edge.Cuts
6
CONTINUOUS
10
332.653398999999979
20
-28.9089579999999984
11
332.8599249999999756
21
-29.0900749999999988
0
LINE
8
Edge.Cuts
6
CONTINUOUS
10
332.8599249999999756
20
-29.0900749999999988
11
333.0410420000000045
21
-29.296600999999999
0
LINE
8
Edge.Cuts
6
CONTINUOUS
10
333.0410420000000045
20
-29.296600999999999
11
333.1936539999999809
21
-29.5249999999999986
0
LINE
8
Edge.Cuts
6
CONTINUOUS
10
333.1936539999999809
20
-29.5249999999999986
11
333.3151469999999676
21
-29.7713649999999994
0
LINE
8
Edge.Cuts
6
CONTINUOUS
10
333.3151469999999676
20
-29.7713649999999994
11
333.4034449999999765
21
-30.0314799999999984
0
LINE
8
Edge.Cuts
6
CONTINUOUS
10
333.4034449999999765
20
-30.0314799999999984
11
333.4570339999999646
21
-30.300894999999997
0
LINE
8
Edge.Cuts
6
CONTINUOUS
10
333.4570339999999646
20
-30.300894999999997
11
333.4749999999999659
21
-30.5749999999999993
0
LINE
8
Edge.Cuts
6
CONTINUOUS
10
333.4749999999999659
20
-30.5749999999999993
11
333.4749999999999659
21
-121.8249999999999886
0
LINE
8
Edge.Cuts
6
CONTINUOUS
10
333.4749999999999659
20
-121.8249999999999886
11
333.4570339999999646
21
-122.0991049999999944
0
LINE
8
Edge.Cuts
6
CONTINUOUS
10
333.4570339999999646
20
-122.0991049999999944
11
333.4034449999999765
21
-122.3685199999999895
0
LINE
8
Edge.Cuts
6
CONTINUOUS
10
333.4034449999999765
20
-122.3685199999999895
11
333.3151469999999676
21
-122.6286349999999885
0
LINE
8
Edge.Cuts
6
CONTINUOUS
10
333.3151469999999676
20
-122.6286349999999885
11
333.1936539999999809
21
-122.875
0
LINE
8
Edge.Cuts
6
CONTINUOUS
10
333.1936539999999809
20
-122.875
11
333.0410420000000045
21
-123.103398999999996
0
LINE
8
Edge.Cuts
6
CONTINUOUS
10
333.0410420000000045
20
-123.103398999999996
11
332.8599249999999756
21
-123.3099249999999927
0
LINE
8
Edge.Cuts
6
CONTINUOUS
10
332.8599249999999756
20
-123.3099249999999927
11
332.653398999999979
21
-123.4910419999999931
0
LINE
8
Edge.Cuts
6
CONTINUOUS
10
332.653398999999979
20
-123.4910419999999931
11
332.4250000000000114
21
-123.6436539999999979
0
LINE
8
Edge.Cuts
6
CONTINUOUS
10
332.4250000000000114
20
-123.6436539999999979
11
332.1786349999999857
21
-123.7651469999999989
0
LINE
8
Edge.Cuts
6
CONTINUOUS
10
332.1786349999999857
20
-123.7651469999999989
11
331.9185200000000009
21
-123.8534449999999936
0
LINE
8
Edge.Cuts
6
CONTINUOUS
10
331.9185200000000009
20
-123.8534449999999936
11
331.6491049999999632
21
-123.9070339999999959
0
LINE
8
Edge.Cuts
6
CONTINUOUS
10
331.6491049999999632
20
-123.9070339999999959
11
331.375
21
-123.9249999999999972
0
LINE
8
Edge.Cuts
6
CONTINUOUS
10
331.375
20
-123.9249999999999972
11
30.5749999999999993
21
-123.9249999999999972
0
LINE
8
Edge.Cuts
6
CONTINUOUS
10
30.5749999999999993
20
-123.9249999999999972
11
30.300894999999997
21
-123.9070339999999959
0
LINE
8
Edge.Cuts
6
CONTINUOUS
10
30.300894999999997
20
-123.9070339999999959
11
30.0314799999999984
21
-123.8534449999999936
0
LINE
8
Edge.Cuts
6
CONTINUOUS
10
30.0314799999999984
20
-123.8534449999999936
11
29.7713649999999994
21
-123.7651469999999989
0
LINE
8
Edge.Cuts
6
CONTINUOUS
10
29.7713649999999994
20
-123.7651469999999989
11
29.5249999999999986
21
-123.6436539999999979
0
LINE
8
Edge.Cuts
6
CONTINUOUS
10
29.5249999999999986
20
-123.6436539999999979
11
29.296600999999999
21
-123.4910419999999931
0
LINE
8
Edge.Cuts
6
CONTINUOUS
10
29.296600999999999
20
-123.4910419999999931
11
29.0900749999999988
21
-123.3099249999999927
0
LINE
8
Edge.Cuts
6
CONTINUOUS
10
29.0900749999999988
20
-123.3099249999999927
11
28.9089579999999984
21
-123.103398999999996
0
LINE
8
Edge.Cuts
6
CONTINUOUS
10
28.9089579999999984
20
-123.103398999999996
11
28.7563459999999971
21
-122.875
0
LINE
8
Edge.Cuts
6
CONTINUOUS
10
28.7563459999999971
20
-122.875
11
28.6348529999999997
21
-122.6286349999999885
0
LINE
8
Edge.Cuts
6
CONTINUOUS
10
28.6348529999999997
20
-122.6286349999999885
11
28.5465549999999979
21
-122.3685199999999895
0
LINE
8
Edge.Cuts
6
CONTINUOUS
10
28.5465549999999979
20
-122.3685199999999895
11
28.4929659999999991
21
-122.0991049999999944
0
LINE
8
Edge.Cuts
6
CONTINUOUS
10
28.4929659999999991
20
-122.0991049999999944
11
28.4749999999999979
21
-121.8249999999999886
0
LINE
8
Edge.Cuts
6
CONTINUOUS
10
28.4749999999999979
20
-121.8249999999999886
11
28.4749999999999979
21
-30.5749999999999993
0
LINE
8
Edge.Cuts
6
CONTINUOUS
10
28.4749999999999979
20
-30.5749999999999993
11
28.4929659999999991
21
-30.300894999999997
0
LINE
8
Edge.Cuts
6
CONTINUOUS
10
28.4929659999999991
20
-30.300894999999997
11
28.5465549999999979
21
-30.0314799999999984
0
LINE
8
Edge.Cuts
6
CONTINUOUS
10
28.5465549999999979
20
-30.0314799999999984
11
28.6348529999999997
21
-29.7713649999999994
0
LINE
8
Edge.Cuts
6
CONTINUOUS
10
28.6348529999999997
20
-29.7713649999999994
11
28.7563459999999971
21
-29.5249999999999986
0
LINE
8
Edge.Cuts
6
CONTINUOUS
10
28.7563459999999971
20
-29.5249999999999986
11
28.9089579999999984
21
-29.296600999999999
0
LINE
8
Edge.Cuts
6
CONTINUOUS
10
28.9089579999999984
20
-29.296600999999999
11
29.0900749999999988
21
-29.0900749999999988
0
LINE
8
Edge.Cuts
6
CONTINUOUS
10
29.0900749999999988
20
-29.0900749999999988
11
29.296600999999999
21
-28.9089579999999984
0
LINE
8
Edge.Cuts
6
CONTINUOUS
10
29.296600999999999
20
-28.9089579999999984
11
29.5249999999999986
21
-28.7563459999999971
0
LINE
8
Edge.Cuts
6
CONTINUOUS
10
29.5249999999999986
20
-28.7563459999999971
11
29.7713649999999994
21
-28.6348529999999997
0
LINE
8
Edge.Cuts
6
CONTINUOUS
10
29.7713649999999994
20
-28.6348529999999997
11
30.0314799999999984
21
-28.5465549999999979
0
LINE
8
Edge.Cuts
6
CONTINUOUS
10
30.0314799999999984
20
-28.5465549999999979
11
30.300894999999997
21
-28.4929659999999991
0
LINE
8
Edge.Cuts
6
CONTINUOUS
10
30.300894999999997
20
-28.4929659999999991
11
30.5749999999999993
21
-28.4749999999999979
0
LINE
8
Edge.Cuts
6
CONTINUOUS
10
30.5749999999999993
20
-28.4749999999999979
11
331.375
21
-28.4749999999999979
0
LINE
8
Edge.Cuts
6
CONTINUOUS
10
30.5749999999999993
20
-28.6749999999999972
11
30.4504669999999997
21
-28.6749999999999972
0
LINE
8
Edge.Cuts
6
CONTINUOUS
10
30.4504669999999997
20
-28.6749999999999972
11
30.2035330000000002
21
-28.7075089999999982
0
LINE
8
Edge.Cuts
6
CONTINUOUS
10
30.2035330000000002
20
-28.7075089999999982
11
29.9629539999999999
21
-28.7719719999999981
0
LINE
8
Edge.Cuts
6
CONTINUOUS
10
29.9629539999999999
20
-28.7719719999999981
11
29.7328479999999971
21
-28.867284999999999
0
LINE
8
Edge.Cuts
6
CONTINUOUS
10
29.7328479999999971
20
-28.867284999999999
11
29.5171509999999984
21
-28.9918169999999975
0
LINE
8
Edge.Cuts
6
CONTINUOUS
10
29.5171509999999984
20
-28.9918169999999975
11
29.3195540000000001
21
-29.1434389999999972
0
LINE
8
Edge.Cuts
6
CONTINUOUS
10
29.3195540000000001
20
-29.1434389999999972
11
29.1434389999999972
21
-29.3195540000000001
0
LINE
8
Edge.Cuts
6
CONTINUOUS
10
29.1434389999999972
20
-29.3195540000000001
11
28.9918169999999975
21
-29.5171509999999984
0
LINE
8
Edge.Cuts
6
CONTINUOUS
10
28.9918169999999975
20
-29.5171509999999984
11
28.867284999999999
21
-29.7328479999999971
0
LINE
8
Edge.Cuts
6
CONTINUOUS
10
28.867284999999999
20
-29.7328479999999971
11
28.7719719999999981
21
-29.9629539999999999
0
LINE
8
Edge.Cuts
6
CONTINUOUS
10
28.7719719999999981
20
-29.9629539999999999
11
28.7075089999999982
21
-30.2035330000000002
0
LINE
8
Edge.Cuts
6
CONTINUOUS
10
28.7075089999999982
20
-30.2035330000000002
11
28.6749999999999972
21
-30.4504669999999997
0
LINE
8
Edge.Cuts
6
CONTINUOUS
10
28.6749999999999972
20
-30.4504669999999997
11
28.6749999999999972
21
-30.5749999999999993
0
LINE
8
Edge.Cuts
6
CONTINUOUS
10
28.6749999999999972
20
-30.5749999999999993
11
28.6749999999999972
21
-121.8249999999999886
0
LINE
8
Edge.Cuts
6
CONTINUOUS
10
28.6749999999999972
20
-121.8249999999999886
11
28.6749999999999972
21
-121.9495329999999882
0
LINE
8
Edge.Cuts
6
CONTINUOUS
10
28.6749999999999972
20
-121.9495329999999882
11
28.7075089999999982
21
-122.1964669999999984
0
LINE
8
Edge.Cuts
6
CONTINUOUS
10
28.7075089999999982
20
-122.1964669999999984
11
28.7719719999999981
21
-122.4370459999999952
0
LINE
8
Edge.Cuts
6
CONTINUOUS
10
28.7719719999999981
20
-122.4370459999999952
11
28.867284999999999
21
-122.6671520000000015
0
LINE
8
Edge.Cuts
6
CONTINUOUS
10
28.867284999999999
20
-122.6671520000000015
11
28.9918169999999975
21
-122.8828489999999931
0
LINE
8
Edge.Cuts
6
CONTINUOUS
10
28.9918169999999975
20
-122.8828489999999931
11
29.1434389999999972
21
-123.0804459999999949
0
LINE
8
Edge.Cuts
6
CONTINUOUS
10
29.1434389999999972
20
-123.0804459999999949
11
29.3195540000000001
21
-123.2565609999999907
0
LINE
8
Edge.Cuts
6
CONTINUOUS
10
29.3195540000000001
20
-123.2565609999999907
11
29.5171509999999984
21
-123.408182999999994
0
LINE
8
Edge.Cuts
6
CONTINUOUS
10
29.5171509999999984
20
-123.408182999999994
11
29.7328479999999971
21
-123.5327149999999961
0
LINE
8
Edge.Cuts
6
CONTINUOUS
10
29.7328479999999971
20
-123.5327149999999961
11
29.9629539999999999
21
-123.6280280000000005
0
LINE
8
Edge.Cuts
6
CONTINUOUS
10
29.9629539999999999
20
-123.6280280000000005
11
30.2035330000000002
21
-123.6924909999999898
0
LINE
8
Edge.Cuts
6
CONTINUOUS
10
30.2035330000000002
20
-123.6924909999999898
11
30.4504669999999997
21
-123.7249999999999943
0
LINE
8
Edge.Cuts
6
CONTINUOUS
10
30.4504669999999997
20
-123.7249999999999943
11
30.5749999999999993
21
-123.7249999999999943
0
LINE
8
Edge.Cuts
6
CONTINUOUS
10
30.5749999999999993
20
-123.7249999999999943
11
331.375
21
-123.7249999999999943
0
LINE
8
Edge.Cuts
6
CONTINUOUS
10
331.375
20
-123.7249999999999943
11
331.4995329999999853
21
-123.7249999999999943
0
LINE
8
Edge.Cuts
6
CONTINUOUS
10
331.4995329999999853
20
-123.7249999999999943
11
331.7464669999999956
21
-123.6924909999999898
0
LINE
8
Edge.Cuts
6
CONTINUOUS
10
331.7464669999999956
20
-123.6924909999999898
11
331.9870459999999639
21
-123.6280280000000005
0
LINE
8
Edge.Cuts
6
CONTINUOUS
10
331.9870459999999639
20
-123.6280280000000005
11
332.2171519999999987
21
-123.5327149999999961
0
LINE
8
Edge.Cuts
6
CONTINUOUS
10
332.2171519999999987
20
-123.5327149999999961
11
332.4328489999999761
21
-123.408182999999994
0
LINE
8
Edge.Cuts
6
CONTINUOUS
10
332.4328489999999761
20
-123.408182999999994
11
332.6304460000000063
21
-123.2565609999999907
0
LINE
8
Edge.Cuts
6
CONTINUOUS
10
332.6304460000000063
20
-123.2565609999999907
11
332.8065609999999879
21
-123.0804459999999949
0
LINE
8
Edge.Cuts
6
CONTINUOUS
10
332.8065609999999879
20
-123.0804459999999949
11
332.9581829999999627
21
-122.8828489999999931
0
LINE
8
Edge.Cuts
6
CONTINUOUS
10
332.9581829999999627
20
-122.8828489999999931
11
333.0827150000000074
21
-122.6671520000000015
0
LINE
8
Edge.Cuts
6
CONTINUOUS
10
333.0827150000000074
20
-122.6671520000000015
11
333.1780279999999834
21
-122.4370459999999952
0
LINE
8
Edge.Cuts
6
CONTINUOUS
10
333.1780279999999834
20
-122.4370459999999952
11
333.2424909999999727
21
-122.1964669999999984
0
LINE
8
Edge.Cuts
6
CONTINUOUS
10
333.2424909999999727
20
-122.1964669999999984
11
333.2749999999999773
21
-121.9495329999999882
0
LINE
8
Edge.Cuts
6
CONTINUOUS
10
333.2749999999999773
20
-121.9495329999999882
11
333.2749999999999773
21
-121.8249999999999886
0
LINE
8
Edge.Cuts
6
CONTINUOUS
10
333.2749999999999773
20
-121.8249999999999886
11
333.2749999999999773
21
-30.5749999999999993
0
LINE
8
Edge.Cuts
6
CONTINUOUS
10
333.2749999999999773
20
-30.5749999999999993
11
333.2749999999999773
21
-30.4504669999999997
0
LINE
8
Edge.Cuts
6
CONTINUOUS
10
333.2749999999999773
20
-30.4504669999999997
11
333.2424909999999727
21
-30.2035330000000002
0
LINE
8
Edge.Cuts
6
CONTINUOUS
10
333.2424909999999727
20
-30.2035330000000002
11
333.1780279999999834
21
-29.9629539999999999
0
LINE
8
Edge.Cuts
6
CONTINUOUS
10
333.1780279999999834
20
-29.9629539999999999
11
333.0827150000000074
21
-29.7328479999999971
0
LINE
8
Edge.Cuts
6
CONTINUOUS
10
333.0827150000000074
20
-29.7328479999999971
11
332.9581829999999627
21
-29.5171509999999984
0
LINE
8
Edge.Cuts
6
CONTINUOUS
10
332.9581829999999627
20
-29.5171509999999984
11
332.8065609999999879
21
-29.3195540000000001
0
LINE
8
Edge.Cuts
6
CONTINUOUS
10
332.8065609999999879
20
-29.3195540000000001
11
332.6304460000000063
21
-29.1434389999999972
0
LINE
8
Edge.Cuts
6
CONTINUOUS
10
332.6304460000000063
20
-29.1434389999999972
11
332.4328489999999761
21
-28.9918169999999975
0
LINE
8
Edge.Cuts
6
CONTINUOUS
10
332.4328489999999761
20
-28.9918169999999975
11
332.2171519999999987
21
-28.867284999999999
0
LINE
8
Edge.Cuts
6
CONTINUOUS
10
332.2171519999999987
20
-28.867284999999999
11
331.9870459999999639
21
-28.7719719999999981
0
LINE
8
Edge.Cuts
6
CONTINUOUS
10
331.9870459999999639
20
-28.7719719999999981
11
331.7464669999999956
21
-28.7075089999999982
0
LINE
8
Edge.Cuts
6
CONTINUOUS
10
331.7464669999999956
20
-28.7075089999999982
11
331.4995329999999853
21
-28.6749999999999972
0
LINE
8
Edge.Cuts
6
CONTINUOUS
10
331.4995329999999853
20
-28.6749999999999972
11
331.375
21
-28.6749999999999972
0
LINE
8
Edge.Cuts
6
CONTINUOUS
10
331.375
20
-28.6749999999999972
11
30.5749999999999993
21
-28.6749999999999972
  0
ENDSEC
  0
EOF
